solid OpenSCAD_Model
  facet normal -1 0 0
    outer loop
      vertex 0 0 0
      vertex 0 500 800
      vertex 0 500 0
    endloop
  endfacet
  facet normal -1 -0 0
    outer loop
      vertex 0 500 800
      vertex 0 0 0
      vertex 0 0 800
    endloop
  endfacet
  facet normal 0 0 1
    outer loop
      vertex 500 500 800
      vertex 480 480 800
      vertex 500 0 800
    endloop
  endfacet
  facet normal 0 0 1
    outer loop
      vertex 500 500 800
      vertex 20 480 800
      vertex 480 480 800
    endloop
  endfacet
  facet normal 0 0 1
    outer loop
      vertex 20 480 800
      vertex 0 500 800
      vertex 20 20 800
    endloop
  endfacet
  facet normal -0 0 1
    outer loop
      vertex 0 500 800
      vertex 20 480 800
      vertex 500 500 800
    endloop
  endfacet
  facet normal -0 0 1
    outer loop
      vertex 480 20 800
      vertex 500 0 800
      vertex 480 480 800
    endloop
  endfacet
  facet normal -0 0 1
    outer loop
      vertex 20 20 800
      vertex 500 0 800
      vertex 480 20 800
    endloop
  endfacet
  facet normal 0 0 1
    outer loop
      vertex 20 20 800
      vertex 0 0 800
      vertex 500 0 800
    endloop
  endfacet
  facet normal 0 0 1
    outer loop
      vertex 0 0 800
      vertex 20 20 800
      vertex 0 500 800
    endloop
  endfacet
  facet normal 1 -0 0
    outer loop
      vertex 500 0 800
      vertex 500 500 0
      vertex 500 500 800
    endloop
  endfacet
  facet normal 1 0 0
    outer loop
      vertex 500 500 0
      vertex 500 0 800
      vertex 500 0 0
    endloop
  endfacet
  facet normal 0 0 -1
    outer loop
      vertex 0 0 0
      vertex 500 500 0
      vertex 500 0 0
    endloop
  endfacet
  facet normal -0 0 -1
    outer loop
      vertex 500 500 0
      vertex 0 0 0
      vertex 0 500 0
    endloop
  endfacet
  facet normal 0 -1 0
    outer loop
      vertex 0 0 0
      vertex 500 0 800
      vertex 0 0 800
    endloop
  endfacet
  facet normal 0 -1 -0
    outer loop
      vertex 500 0 800
      vertex 0 0 0
      vertex 500 0 0
    endloop
  endfacet
  facet normal 0 1 -0
    outer loop
      vertex 500 500 0
      vertex 0 500 800
      vertex 500 500 800
    endloop
  endfacet
  facet normal 0 1 0
    outer loop
      vertex 0 500 800
      vertex 500 500 0
      vertex 0 500 0
    endloop
  endfacet
  facet normal 1 -0 0
    outer loop
      vertex 20 20 800
      vertex 20 480 20
      vertex 20 480 800
    endloop
  endfacet
  facet normal 1 0 0
    outer loop
      vertex 20 480 20
      vertex 20 20 800
      vertex 20 20 20
    endloop
  endfacet
  facet normal -1 0 0
    outer loop
      vertex 480 20 20
      vertex 480 480 800
      vertex 480 480 20
    endloop
  endfacet
  facet normal -1 -0 0
    outer loop
      vertex 480 480 800
      vertex 480 20 20
      vertex 480 20 800
    endloop
  endfacet
  facet normal -0 0 1
    outer loop
      vertex 20 480 20
      vertex 480 20 20
      vertex 480 480 20
    endloop
  endfacet
  facet normal 0 0 1
    outer loop
      vertex 480 20 20
      vertex 20 480 20
      vertex 20 20 20
    endloop
  endfacet
  facet normal 0 1 -0
    outer loop
      vertex 480 20 20
      vertex 20 20 800
      vertex 480 20 800
    endloop
  endfacet
  facet normal 0 1 0
    outer loop
      vertex 20 20 800
      vertex 480 20 20
      vertex 20 20 20
    endloop
  endfacet
  facet normal 0 -1 0
    outer loop
      vertex 20 480 20
      vertex 480 480 800
      vertex 20 480 800
    endloop
  endfacet
  facet normal 0 -1 -0
    outer loop
      vertex 480 480 800
      vertex 20 480 20
      vertex 480 480 20
    endloop
  endfacet
  facet normal -1 0 0
    outer loop
      vertex 0 600 0
      vertex 0 1100 20
      vertex 0 1100 0
    endloop
  endfacet
  facet normal -1 -0 0
    outer loop
      vertex 0 1100 20
      vertex 0 600 0
      vertex 0 600 20
    endloop
  endfacet
  facet normal 0 0 1
    outer loop
      vertex 500 1100 20
      vertex 480 1080 20
      vertex 500 600 20
    endloop
  endfacet
  facet normal 0 0 1
    outer loop
      vertex 500 1100 20
      vertex 20 1080 20
      vertex 480 1080 20
    endloop
  endfacet
  facet normal 0 0 1
    outer loop
      vertex 20 1080 20
      vertex 0 1100 20
      vertex 20 620 20
    endloop
  endfacet
  facet normal -0 0 1
    outer loop
      vertex 0 1100 20
      vertex 20 1080 20
      vertex 500 1100 20
    endloop
  endfacet
  facet normal -0 0 1
    outer loop
      vertex 480 620 20
      vertex 500 600 20
      vertex 480 1080 20
    endloop
  endfacet
  facet normal -0 0 1
    outer loop
      vertex 20 620 20
      vertex 500 600 20
      vertex 480 620 20
    endloop
  endfacet
  facet normal 0 0 1
    outer loop
      vertex 20 620 20
      vertex 0 600 20
      vertex 500 600 20
    endloop
  endfacet
  facet normal 0 0 1
    outer loop
      vertex 0 600 20
      vertex 20 620 20
      vertex 0 1100 20
    endloop
  endfacet
  facet normal 1 -0 0
    outer loop
      vertex 500 600 20
      vertex 500 1100 0
      vertex 500 1100 20
    endloop
  endfacet
  facet normal 1 0 0
    outer loop
      vertex 500 1100 0
      vertex 500 600 20
      vertex 500 600 0
    endloop
  endfacet
  facet normal 0 1 -0
    outer loop
      vertex 500 1100 0
      vertex 0 1100 20
      vertex 500 1100 20
    endloop
  endfacet
  facet normal 0 1 0
    outer loop
      vertex 0 1100 20
      vertex 500 1100 0
      vertex 0 1100 0
    endloop
  endfacet
  facet normal 0 0 -1
    outer loop
      vertex 0 600 0
      vertex 500 1100 0
      vertex 500 600 0
    endloop
  endfacet
  facet normal -0 0 -1
    outer loop
      vertex 500 1100 0
      vertex 0 600 0
      vertex 0 1100 0
    endloop
  endfacet
  facet normal 0 -1 0
    outer loop
      vertex 0 600 0
      vertex 500 600 20
      vertex 0 600 20
    endloop
  endfacet
  facet normal 0 -1 -0
    outer loop
      vertex 500 600 20
      vertex 0 600 0
      vertex 500 600 0
    endloop
  endfacet
  facet normal -1 0 0
    outer loop
      vertex 20 620 20
      vertex 20 1080 22
      vertex 20 1080 20
    endloop
  endfacet
  facet normal -1 -0 0
    outer loop
      vertex 20 1080 22
      vertex 20 620 20
      vertex 20 620 22
    endloop
  endfacet
  facet normal -0 0 1
    outer loop
      vertex 20 1080 22
      vertex 480 620 22
      vertex 480 1080 22
    endloop
  endfacet
  facet normal 0 0 1
    outer loop
      vertex 480 620 22
      vertex 20 1080 22
      vertex 20 620 22
    endloop
  endfacet
  facet normal 1 -0 0
    outer loop
      vertex 480 620 22
      vertex 480 1080 20
      vertex 480 1080 22
    endloop
  endfacet
  facet normal 1 0 0
    outer loop
      vertex 480 1080 20
      vertex 480 620 22
      vertex 480 620 20
    endloop
  endfacet
  facet normal 0 1 -0
    outer loop
      vertex 480 1080 20
      vertex 20 1080 22
      vertex 480 1080 22
    endloop
  endfacet
  facet normal 0 1 0
    outer loop
      vertex 20 1080 22
      vertex 480 1080 20
      vertex 20 1080 20
    endloop
  endfacet
  facet normal 0 -1 0
    outer loop
      vertex 20 620 20
      vertex 480 620 22
      vertex 20 620 22
    endloop
  endfacet
  facet normal 0 -1 -0
    outer loop
      vertex 480 620 22
      vertex 20 620 20
      vertex 480 620 20
    endloop
  endfacet
endsolid OpenSCAD_Model
